<svg id="Слой_1" data-name="Слой 1" xmlns="http://www.w3.org/2000/svg" viewBox="0 0 280 250">
    <defs>
        <style>.cls-1{fill:#fff;}</style>
    </defs>
    <title>логотип</title>
    <rect x="35.38" y="24.13" width="214.25" height="214.25" rx="30"/>
    <path class="cls-1"
          d="M201,190.4l-34.53-21a2.2,2.2,0,0,0-3.34,1.91l.46,40.39-19-34.59a2.72,2.72,0,0,0-4.75,0l-19.34,34.39.85-39.07a2.93,2.93,0,0,0-4.42-2.58L83.35,189.77l21.89-36.06a1.2,1.2,0,0,0-1-1.83L62,152.36l29.52-16.19a5.94,5.94,0,0,0,.06-10.38l-29.35-16.5,39.33.86a2.79,2.79,0,0,0,2.45-4.21L84,72.1,118.47,93a2.22,2.22,0,0,0,3.37-1.92l-.45-40.35,19.07,34.77a2.61,2.61,0,0,0,4.56,0L164.46,51l-.78,35.65A4.83,4.83,0,0,0,171,90.9l30.68-18.17-20.6,33.94a2.58,2.58,0,0,0,2.23,3.92l39.71-.45-32.6,17.64a4,4,0,0,0-.06,7.06l32.43,18.37-39.87-.87a2.48,2.48,0,0,0-2.19,3.75Z"/>
    <rect x="134.62" y="66.46" width="16" height="89.8"/>
    <rect x="120.44" y="123.37" width="44.11" height="15.75"/>
</svg>